<svg width="3055" height="925" xmlns="http://www.w3.org/2000/svg" xmlns:xlink="http://www.w3.org/1999/xlink" xml:space="preserve" overflow="hidden"><g transform="translate(-225 -833)"><g><g><g><path d="M812.755 576.201C812.755 459.679 907.213 365.22 1023.74 365.22 1140.26 365.22 1234.72 459.679 1234.72 576.201 1234.72 692.723 1140.26 787.181 1023.74 787.181 907.213 787.181 812.755 692.723 812.755 576.201Z" stroke="#3B82F6" stroke-width="49.0157" stroke-miterlimit="8" fill="none" fill-rule="evenodd" transform="matrix(1.026 0 0 1 1887.73 616.546)"/><path d="M981.379 575.401C981.379 552.451 999.985 533.845 1022.94 533.845 1045.89 533.845 1064.49 552.451 1064.49 575.401 1064.49 598.352 1045.89 616.958 1022.94 616.958 999.985 616.958 981.379 598.352 981.379 575.401Z" fill="#3B82F6" fill-rule="evenodd" transform="matrix(1.026 0 0 1 1887.73 616.546)"/><path d="M1233.92 847.119C1233.92 813.575 1261.11 786.382 1294.65 786.382 1328.2 786.382 1355.39 813.575 1355.39 847.119 1355.39 880.663 1328.2 907.856 1294.65 907.856 1261.11 907.856 1233.92 880.663 1233.92 847.119Z" fill="#3B82F6" fill-rule="evenodd" transform="matrix(1.026 0 0 1 1887.73 616.546)"/><path d="M1203.55 364.421C1203.55 347.65 1217.15 334.053 1233.92 334.053 1250.69 334.053 1264.28 347.65 1264.28 364.421 1264.28 381.192 1250.69 394.789 1233.92 394.789 1217.15 394.789 1203.55 381.192 1203.55 364.421Z" fill="#3B82F6" fill-rule="evenodd" transform="matrix(1.026 0 0 1 1887.73 616.546)"/><path d="M781.587 786.382C781.587 769.611 795.184 756.014 811.955 756.014 828.727 756.014 842.324 769.611 842.324 786.382 842.324 803.153 828.727 816.75 811.955 816.75 795.184 816.75 781.587 803.153 781.587 786.382Z" fill="#3B82F6" fill-rule="evenodd" transform="matrix(1.026 0 0 1 1887.73 616.546)"/></g></g></g><text fill="#002060" font-family="DengXian,DengXian_MSFontService,sans-serif" font-weight="700" font-size="440" transform="matrix(1 0 0 1 489.704 1375)">Searchlysis</text></g></svg>