<svg width="3349" height="970" xmlns="http://www.w3.org/2000/svg" xmlns:xlink="http://www.w3.org/1999/xlink" xml:space="preserve" overflow="hidden"><g transform="translate(-552 -793)"><g><g><g><path d="M1252.23 887.769C1252.23 708.24 1397.77 562.705 1577.3 562.705 1756.83 562.705 1902.36 708.24 1902.36 887.769 1902.36 1067.3 1756.83 1212.83 1577.3 1212.83 1397.77 1212.83 1252.23 1067.3 1252.23 887.769Z" stroke="#3B82F6" stroke-width="75.5199" stroke-miterlimit="8" fill="none" fill-rule="evenodd" transform="matrix(1.00112 0 0 1 -651.102 280.778)"/><path d="M1512.04 886.537C1512.04 851.177 1540.71 822.51 1576.07 822.51 1611.43 822.51 1640.09 851.177 1640.09 886.537 1640.09 921.898 1611.43 950.565 1576.07 950.565 1540.71 950.565 1512.04 921.898 1512.04 886.537Z" fill="#3B82F6" fill-rule="evenodd" transform="matrix(1.00112 0 0 1 -651.102 280.778)"/><path d="M1901.13 1305.18C1901.13 1253.5 1943.03 1211.6 1994.71 1211.6 2046.39 1211.6 2088.29 1253.5 2088.29 1305.18 2088.29 1356.86 2046.39 1398.76 1994.71 1398.76 1943.03 1398.76 1901.13 1356.86 1901.13 1305.18Z" fill="#3B82F6" fill-rule="evenodd" transform="matrix(1.00112 0 0 1 -651.102 280.778)"/><path d="M1854.34 561.474C1854.34 535.634 1875.29 514.684 1901.13 514.684 1926.97 514.684 1947.92 535.634 1947.92 561.474 1947.92 587.314 1926.97 608.263 1901.13 608.263 1875.29 608.263 1854.34 587.314 1854.34 561.474Z" fill="#3B82F6" fill-rule="evenodd" transform="matrix(1.00112 0 0 1 -651.102 280.778)"/><path d="M1204.21 1211.6C1204.21 1185.76 1225.16 1164.81 1251 1164.81 1276.84 1164.81 1297.79 1185.76 1297.79 1211.6 1297.79 1237.44 1276.84 1258.39 1251 1258.39 1225.16 1258.39 1204.21 1237.44 1204.21 1211.6Z" fill="#3B82F6" fill-rule="evenodd" transform="matrix(1.00112 0 0 1 -651.102 280.778)"/></g></g></g><text fill="#3B82F6" font-family="DengXian,DengXian_MSFontService,sans-serif" font-weight="700" font-size="440" transform="matrix(1 0 0 1 1474.73 1381)">Searchlysis</text></g></svg>